HIERARCHY
ROOT Hips
{
     OFFSET 1.88212 96.90440 -13.34250
     CHANNELS 6 Xposition Yposition Zposition Zrotation Xrotation Yrotation
     JOINT Spine
     {
          OFFSET 0.00000 11.89050 0.00000
          CHANNELS 3 Zrotation Xrotation Yrotation
          JOINT Spine1
          {
               OFFSET -0.00000 25.65740 0.12766
               CHANNELS 3 Zrotation Xrotation Yrotation
               JOINT HEad
               {
                    OFFSET 0.00000 8.73416 0.01134
                    CHANNELS 3 Zrotation Xrotation Yrotation
                    End Site
                    {
                         OFFSET -0.29000 12.77420 2.51395
                    }
               }
               JOINT LeftShoulder1
               {
                    OFFSET 8.99000 -0.36225 -0.22000
                    CHANNELS 3 Zrotation Xrotation Yrotation
                    JOINT LeftArm
                    {
                         OFFSET 10.28270 -0.00338 0.32212
                         CHANNELS 3 Zrotation Xrotation Yrotation
                         JOINT LeftForeArm
                         {
                              OFFSET 32.76690 0.09914 -1.42434
                              CHANNELS 3 Zrotation Xrotation Yrotation
                              JOINT LeftHand
                              {
                                   OFFSET 27.56430 0.08536 1.02216
                                   CHANNELS 3 Zrotation Xrotation Yrotation
                                   End Site
                                   {
                                        OFFSET 16.74430 -0.60000 1.50291
                                   }
                              }
                         }
                    }
               }
               JOINT RightShoulder
               {
                    OFFSET -8.99000 -0.36225 -0.22000
                    CHANNELS 3 Zrotation Xrotation Yrotation
                    JOINT RightArm
                    {
                         OFFSET -10.28270 -0.00338 0.32212
                         CHANNELS 3 Zrotation Xrotation Yrotation
                         JOINT RightForeArm
                         {
                              OFFSET -32.89710 0.09914 -1.42434
                              CHANNELS 3 Zrotation Xrotation Yrotation
                              JOINT RightHand
                              {
                                   OFFSET -27.49210 0.08536 1.02216
                                   CHANNELS 3 Zrotation Xrotation Yrotation
                                   End Site
                                   {
                                        OFFSET -16.63120 -0.60000 1.50291
                                   }
                              }
                         }
                    }
               }
          }
     }
     JOINT LeftUpLeg
     {
          OFFSET 8.94580 -8.66707 0.10165
          CHANNELS 3 Zrotation Xrotation Yrotation
          JOINT LeftLeg
          {
               OFFSET 0.00000 -44.42270 1.37270
               CHANNELS 3 Zrotation Xrotation Yrotation
               JOINT LeftFoot
               {
                    OFFSET -0.25355 -42.09240 -1.46059
                    CHANNELS 3 Zrotation Xrotation Yrotation
                    JOINT LeftToes
                    {
                         OFFSET -0.04000 -4.41509 8.49910
                         CHANNELS 3 Zrotation Xrotation Yrotation
                         End Site
                         {
                              OFFSET 0.08000 -0.04745 9.77979
                         }
                    }
               }
          }
     }
     JOINT RightUpLeg
     {
          OFFSET -8.94580 -8.66707 0.10165
          CHANNELS 3 Zrotation Xrotation Yrotation
          JOINT RightLeg
          {
               OFFSET 0.00000 -44.42270 1.37270
               CHANNELS 3 Zrotation Xrotation Yrotation
               JOINT RightFoot
               {
                    OFFSET 0.25355 -42.09240 -1.46059
                    CHANNELS 3 Zrotation Xrotation Yrotation
                    JOINT RightToes
                    {
                         OFFSET 0.04000 -4.41509 8.49910
                         CHANNELS 3 Zrotation Xrotation Yrotation
                         End Site
                         {
                              OFFSET -0.08000 -0.13745 9.77979
                         }
                    }
               }
          }
     }
}
MOTION
Frames: 15
Frame Time: 0.01667
138.17261 88.21898 -11.47099 -4.36185 12.64231 -148.72900 3.64110 20.01511 -11.15668 -0.02901 0.02782 -0.01454 -9.68712 -1.48485 20.38605 -10.72890 13.53370 5.84762 -129.54292 -57.98438 -105.86400 -8.80274 59.14305 -102.05798 20.19014 2.72435 -8.36930 13.65702 16.07368 0.11469 80.15141 3.70788 76.11650 9.25311 30.58589 101.99863 18.72805 11.20977 3.48849 27.01308 -3.76013 -24.33653 -32.56030 -4.57028 79.94815 26.78009 0.00983 0.00269 -18.09398 -19.84623 -62.83187 -14.10237 3.41779 -3.01263 28.80583 20.35381 -22.96681 -30.00413 -0.00088 0.00359 7.47576 -44.39785 28.03309 
137.65788 88.18278 -11.56138 -4.08024 12.62571 -149.11238 4.99029 18.68690 -8.97587 -0.02594 0.02545 -0.01519 -10.39586 -0.90658 18.77171 -11.48085 14.62477 3.77957 -127.31109 -57.76535 -104.39371 -10.13543 58.39759 -99.89571 21.33064 0.51475 -8.60825 12.80555 16.27234 -1.77618 80.37331 3.31785 75.46084 8.86445 30.70155 102.60788 18.65492 11.15532 3.44205 27.96508 -3.47472 -26.13042 -33.61375 -6.51763 80.51839 27.77149 0.00866 0.00182 -18.53937 -20.41830 -61.98782 -14.08673 2.29015 -4.32459 28.37890 22.84647 -22.01458 -30.00488 -0.00300 0.00253 7.51194 -45.76164 27.25479 
137.12564 88.10595 -11.65825 -3.87691 12.58772 -149.33635 5.97768 17.77214 -7.04689 -0.02283 0.02282 -0.01521 -10.69270 -0.42678 17.16717 -11.90783 15.37174 1.99216 -124.53500 -57.26049 -102.44601 -11.29272 57.39762 -97.81522 20.51439 2.89249 -9.30078 12.29251 16.26844 -3.38556 80.59354 2.79281 74.78088 8.62804 30.90770 103.29338 18.53045 11.19137 3.88691 28.62440 -3.38506 -26.55154 -34.61823 -7.31511 79.92640 28.65895 0.00732 0.00141 -18.92184 -20.88187 -61.14057 -14.23685 1.18056 -5.44475 28.21774 25.24474 -21.42091 -30.00570 -0.00478 0.00161 7.38831 -47.17480 26.37970 
136.62686 87.98447 -11.73160 -3.77851 12.53904 -149.40794 5.92814 18.32697 -4.85716 -0.07891 0.10604 0.00786 -9.82955 -1.12186 15.04776 -11.37650 14.76938 0.25988 -114.61291 -54.41682 -96.18803 -10.96986 52.59049 -94.70792 21.18255 1.95481 -9.54468 12.92622 14.89564 -4.87106 80.73334 2.16808 74.06050 8.53358 31.15591 104.09357 18.48680 11.16735 3.86117 28.99682 -3.45228 -25.74711 -35.58960 -7.04564 78.37770 29.47880 0.00605 0.00098 -19.29498 -21.28598 -60.32885 -14.51837 0.12974 -6.36818 28.26648 27.49664 -21.17626 -30.00657 -0.00614 0.00091 7.13381 -48.58881 25.46000 
136.19960 87.82040 -11.76139 -3.79531 12.48328 -149.34195 5.63410 18.92706 -2.98582 -0.01379 0.01140 -0.01684 -8.95666 -1.57058 13.13617 -10.90473 14.25797 -1.12679 -108.01550 -52.13695 -91.98678 -10.76673 49.02312 -92.95247 20.64900 3.62445 -9.95547 13.46858 13.76017 -6.05265 80.84908 1.40680 73.33122 8.55817 31.40763 104.95527 18.41315 11.18138 4.10237 29.11549 -3.66768 -23.84060 -36.47913 -5.79815 76.06155 30.26845 0.00479 0.00042 -19.69558 -21.65317 -59.59558 -14.88182 -1.04570 -5.99662 29.01829 29.24484 -22.46839 -30.00739 -0.00723 0.00032 6.79056 -50.01102 24.52300 
135.85905 87.62033 -11.74620 -3.92093 12.41770 -149.15431 5.13561 19.54039 -1.41836 -0.00712 0.00573 -0.01779 -7.93274 -2.01955 11.33541 -10.27242 13.61920 -2.36002 -103.46922 -50.33154 -88.98811 -10.72404 46.26014 -91.89363 20.92168 3.31602 -10.02660 14.07844 12.61511 -6.96467 80.94715 0.56170 72.62263 8.66941 31.64422 105.82656 18.38797 11.14153 4.03353 29.02271 -4.03005 -20.93929 -37.20203 -3.66739 73.13190 31.05785 0.00346 -0.00011 -20.15759 -21.98523 -58.98693 -15.25168 -2.22104 -4.45526 30.38710 30.37960 -25.10304 -30.00804 -0.00806 -0.00017 6.40358 -51.41941 23.61051 
135.60347 87.39522 -11.70483 -4.13655 12.33992 -148.86055 4.47289 20.14928 -0.13547 -0.00542 0.00456 -0.01718 -6.83890 -2.39732 9.69416 -9.59411 12.95453 -3.39851 -100.21849 -48.82818 -86.75836 -10.76383 44.06668 -91.20819 20.43101 4.47011 -10.21522 14.68257 11.56316 -7.62608 81.04334 -0.31446 71.95396 8.83370 31.85746 106.67777 18.35645 11.10302 4.11866 28.90145 -4.46313 -18.22989 -37.77102 -1.52822 70.49694 31.88155 0.00212 -0.00047 -20.70491 -22.28344 -58.52530 -15.67881 -3.22805 -2.96156 31.94672 31.38034 -27.84418 -30.00058 -0.00355 0.00057 5.86849 -52.89348 22.73757 
135.42117 87.16129 -11.66192 -4.41709 12.25013 -148.47655 3.68769 20.74016 0.88442 -0.00432 0.00384 -0.01635 -5.70454 -2.70766 8.22209 -8.90460 12.28842 -4.23177 -97.82639 -47.51176 -85.07093 -10.84807 42.25882 -90.71092 20.44403 4.45215 -10.22466 15.27061 10.61647 -8.06490 81.14024 -1.16586 71.33675 9.01731 32.03736 107.48198 18.37628 11.03137 4.01098 28.75696 -4.95533 -15.71727 -38.20338 0.57667 68.15377 32.75421 0.00084 -0.00052 -21.35417 -22.56051 -58.21027 -16.17209 -4.08978 -1.52602 33.65035 32.23294 -30.64585 -30.00012 -0.00310 0.00018 5.28451 -54.38441 21.95734 
135.29248 86.93400 -11.63892 -4.74056 12.15060 -148.01692 2.81784 21.30477 1.66347 -0.00341 0.00335 -0.01537 -4.55283 -2.95498 6.92236 -8.22235 11.63580 -4.86660 -96.03242 -46.32132 -83.78259 -10.93861 40.75463 -90.32220 20.01708 5.26318 -10.31227 15.84897 9.77389 -8.31520 81.22243 -1.93918 70.77506 9.18751 32.16945 108.22941 18.41525 10.97549 3.99140 28.58725 -5.48497 -13.40882 -38.51611 2.62265 66.08780 33.67411 -0.00030 -0.00023 -22.11093 -22.84100 -58.02521 -16.70569 -4.84529 -0.15659 35.49105 32.85453 -33.50847 -30.00103 -0.00188 -0.00034 4.67990 -55.83390 21.33102 
135.19914 86.72203 -11.64756 -5.08921 12.04399 -147.49860 1.89509 21.83832 2.22762 -0.00259 0.00308 -0.01428 -3.40424 -3.14064 5.79361 -7.55284 11.00631 -5.31605 -94.68073 -45.24340 -82.79651 -11.03180 39.49405 -89.99780 19.93690 5.37587 -10.30501 16.42694 9.02905 -8.40868 81.27049 -2.59577 70.27108 9.31776 32.24237 108.90935 18.49134 10.91915 3.84945 28.38893 -6.03093 -11.31119 -38.72520 4.59579 64.28304 34.63287 -0.00122 0.00033 -22.96996 -23.15143 -57.95292 -17.26344 -5.49731 1.14207 37.37133 33.28642 -36.35653 -30.00078 -0.00142 -0.00065 4.11861 -57.19624 20.84405 
135.12740 86.52704 -11.69098 -5.44952 11.93275 -146.94014 0.94583 22.33826 2.60489 -0.00172 0.00294 -0.01311 -2.27763 -3.26405 4.83111 -6.89717 10.40782 -5.60244 -93.67517 -44.28036 -82.03909 -11.12567 38.45951 -89.71743 19.61835 5.93996 -10.35091 17.00579 8.37616 -8.37286 81.27570 -3.11755 69.82682 9.39152 32.25741 109.51541 18.55835 10.88382 3.75983 28.16143 -6.57854 -9.42950 -38.84583 6.48569 62.72817 35.62252 -0.00193 0.00102 -23.92061 -23.51011 -57.98594 -17.83042 -6.03913 2.36931 39.22242 33.54751 -39.11789 -30.00056 -0.00113 -0.00076 3.63763 -58.45939 20.45588 
135.06781 86.34892 -11.76731 -5.81114 11.81864 -146.36034 -0.00791 22.80298 2.82316 -0.00090 0.00293 -0.01194 -1.18992 -3.32430 4.02778 -6.25265 9.84617 -5.75052 -92.94315 -43.44184 -81.45157 -11.23129 37.61759 -89.46331 19.53121 6.07390 -10.35841 17.57805 7.81041 -8.23162 81.24223 -3.50601 69.44600 9.40646 32.22600 110.03621 18.60341 10.85545 3.60769 27.90771 -7.11849 -7.76690 -38.89104 8.27961 61.41590 36.63878 -0.00246 0.00172 -24.95664 -23.91680 -58.12373 -18.39023 -6.46702 3.52708 40.99248 33.64901 -41.73360 -30.00047 -0.00089 -0.00078 3.22699 -59.60114 20.12942 
135.01251 86.18634 -11.87392 -6.16561 11.70296 -145.77707 -0.94735 23.23103 2.90851 -0.00011 0.00304 -0.01084 -0.15672 -3.32108 3.37507 -5.62005 9.32647 -5.78687 -92.41809 -42.72735 -80.98421 -11.34808 36.93774 -89.22620 19.29859 6.45328 -10.41166 18.13651 7.32692 -8.00973 81.17596 -3.77193 69.13109 9.36874 32.16356 110.46533 18.59499 10.84572 3.50829 27.63340 -7.64422 -6.32399 -38.87223 9.96411 60.33833 37.67917 -0.00288 0.00236 -26.07858 -24.35071 -58.35752 -18.92666 -6.78238 4.61788 42.64000 33.60345 -44.15827 -30.00043 -0.00070 -0.00076 2.87107 -60.62511 19.83609 
134.95468 86.03841 -12.00848 -6.50600 11.58721 -145.20665 -1.85631 23.62119 2.88436 0.00061 0.00321 -0.00982 0.80791 -3.25476 2.86357 -5.00092 8.85269 -5.73444 -92.04076 -42.13181 -80.59934 -11.47395 36.37740 -89.00196 19.19684 6.58014 -10.45421 18.67469 6.92034 -7.73116 81.08286 -3.92969 68.88227 9.28832 32.08205 110.80113 18.53286 10.85021 3.40038 27.34555 -8.14982 -5.09962 -38.80102 11.52751 59.48317 38.74129 -0.00315 0.00294 -27.28661 -24.78133 -58.65902 -19.42595 -6.99018 5.64331 44.13249 33.42813 -46.35970 -30.00041 -0.00057 -0.00072 2.55631 -61.54204 19.56466 
134.88779 85.90479 -12.16875 -6.82676 11.47380 -144.66306 -2.72004 23.97305 2.77053 0.00130 0.00340 -0.00895 1.69117 -3.12631 2.48371 -4.39635 8.42809 -5.61467 -91.77149 -41.65015 -80.27336 -11.60215 35.91214 -88.79408 18.98931 6.85092 -10.52586 19.18210 6.58581 -7.41832 80.97408 -3.99248 68.69757 9.17520 31.98718 111.05164 18.41641 10.87760 3.35376 27.05178 -8.62947 -4.09329 -38.69169 12.96087 58.83477 39.82277 -0.00325 0.00343 -28.57279 -25.18455 -58.98365 -19.87812 -7.09733 6.60356 45.44806 33.14487 -48.31854 -30.00041 -0.00050 -0.00069 2.29010 -62.36741 19.32714 
